<svg xmlns="http://www.w3.org/2000/svg" width="30" height="27" viewBox="0 0 30 27">
  <path id="Forma_1" data-name="Forma 1" d="M283.37,3823.1l-1.108-2.385a1.579,1.579,0,0,1,.763-2.1,9.286,9.286,0,0,0,3.855-2.943,10.528,10.528,0,0,0,1.7-6h-4.477a1.554,1.554,0,0,1-1.538-1.568v-9.538a1.554,1.554,0,0,1,1.538-1.568h9.354a1.554,1.554,0,0,1,1.538,1.568v7.5a31.473,31.473,0,0,1-.951,8.684,13.272,13.272,0,0,1-3.517,5.707,17.087,17.087,0,0,1-5.16,3.413,1.523,1.523,0,0,1-2-.765Zm-17.116-.007-1.1-2.378a1.579,1.579,0,0,1,.763-2.1,9.286,9.286,0,0,0,3.855-2.943,10.528,10.528,0,0,0,1.7-6h-4.477a1.554,1.554,0,0,1-1.538-1.568v-9.538a1.554,1.554,0,0,1,1.538-1.568h9.354a1.554,1.554,0,0,1,1.538,1.568v7.5a31.429,31.429,0,0,1-.951,8.706,13.211,13.211,0,0,1-3.538,5.685,17.377,17.377,0,0,1-5.136,3.407,1.512,1.512,0,0,1-.616.131A1.539,1.539,0,0,1,266.254,3823.1Z" transform="translate(-265 -3797)" fill="#2c2c2c"/>
</svg>
